<svg id="Layer_1" data-name="Layer 1" xmlns="http://www.w3.org/2000/svg" viewBox="0 0 215 40.24"><defs><style>.cls-1{fill:#76b828;}.cls-2{fill:#db0036;}.cls-3{fill:none;stroke:#76b828;stroke-width:2.44px;}</style></defs><title>Epilepsiefonds-logo</title><path class="cls-1" d="M363.11,315.29v-7.48h0.57c1.79,0,2.47.8,2.47,3.65,0,3-.67,3.83-2.47,3.83h-0.57Zm-1.8-9.2c-0.29,0-.35,0-0.35.33v10.25c0,0.27.06,0.34,0.33,0.34h2.44c2.84,0,4.69-.94,4.69-5.52,0-4.42-1.6-5.41-4.64-5.41h-2.47Z" transform="translate(-313 -277.04)"/><path class="cls-1" d="M371.9,312.13c0-.45.11-1.78,1.36-1.78s1.15,1.13,1.15,1.78h-2.5Zm4,3.08a0.21,0.21,0,0,0-.18-0.13,5.69,5.69,0,0,1-2,.53,1.68,1.68,0,0,1-1.75-2h4.29c0.3,0,.37-0.1.37-0.4,0-1.93-.48-4.35-3.19-4.35-2.14,0-3.49,1.76-3.49,4.29,0,2.93,1.47,4.13,3.57,4.13,1.26,0,2.85-.53,2.85-0.94a0.32,0.32,0,0,0,0-.17Z" transform="translate(-313 -277.04)"/><path class="cls-1" d="M392.36,316.67c0,0.29-.06.33-0.34,0.33h-1.4c-0.27,0-.33,0-0.33-0.33l-0.13-5.41c0-.57,0-2,0-2.55h0c-0.09.57-.38,1.93-0.56,2.5l-1,3.11a0.27,0.27,0,0,1-.35.27h-1a0.27,0.27,0,0,1-.35-0.27l-0.93-3.11c-0.18-.57-0.46-1.93-0.56-2.5h0c0,0.57,0,2,0,2.55l-0.16,5.41c0,0.29-.06.33-0.33,0.33h-1.16c-0.27,0-.35,0-0.34-0.33l0.45-10.25c0-.29.06-0.33,0.33-0.33h1.53c0.26,0,.27,0,0.35.26l1.29,4a12.36,12.36,0,0,1,.48,1.91h0a9.41,9.41,0,0,1,.51-1.91l1.36-4c0.08-.22.1-0.26,0.38-0.26h1.53c0.27,0,.3.08,0.33,0.51Z" transform="translate(-313 -277.04)"/><path class="cls-1" d="M398.34,315.19a1.74,1.74,0,0,1-1.2.61,1,1,0,0,1-1.05-1.09c0-1.4,1.85-1.28,2.25-1.28v1.75Zm2.19,1.53a0.19,0.19,0,0,0,.14-0.14,5.12,5.12,0,0,1-.41-2.07v-3.08c0-1.66-.75-2.57-2.74-2.57-1.23,0-2.81.38-2.81,0.75a0.42,0.42,0,0,0,0,.19l0.32,1a0.21,0.21,0,0,0,.16.16,8.06,8.06,0,0,1,2-.48,1,1,0,0,1,1.13,1.18v0.49c-1.26,0-4.16,0-4.16,2.69a2.26,2.26,0,0,0,2.39,2.46,2.65,2.65,0,0,0,2.07-1,1.6,1.6,0,0,0,.46,1,1,1,0,0,0,.21-0.06Z" transform="translate(-313 -277.04)"/><path class="cls-1" d="M407.84,316.27a0.64,0.64,0,0,1,0,.16c0,0.38-1.29.85-2.25,0.85-2.22,0-3.54-1.36-3.54-4.05s1.36-4.37,3.72-4.37c0.86,0,2.26.48,2.26,1a0.51,0.51,0,0,1,0,.14l-0.59,1a0.18,0.18,0,0,1-.11.08,3.24,3.24,0,0,0-1.51-.64c-1.08,0-1.56.83-1.56,2.66s0.42,2.57,1.64,2.57a3.9,3.9,0,0,0,1.42-.54,0.14,0.14,0,0,1,.11.08Z" transform="translate(-313 -277.04)"/><path class="cls-1" d="M415.85,316.79c0,0.18,0,.22-0.22.22H414c-0.19,0-.22,0-0.22-0.22v-4.91c0-.61-0.08-1.34-0.89-1.34a2,2,0,0,0-1.36.67v5.58c0,0.18,0,.22-0.22.22h-1.58c-0.19,0-.22,0-0.22-0.22V306.07c0-.24.11-0.24,0.3-0.29l1.34-.27s0.19,0,.22,0,0.16,0.06.16,0.33v4a3.23,3.23,0,0,1,2.2-.91c1.69,0,2.07,1.13,2.07,2.52v5.41Z" transform="translate(-313 -277.04)"/><path class="cls-1" d="M423,316.55a0.74,0.74,0,0,1,0,.13c0,0.3-1.16.61-2.25,0.61-2.06,0-2.06-1.61-2.06-3.08v-3.59h-1.13c-0.19,0-.22,0-0.22-0.22v-1c0-.18,0-0.22.22-0.22h1.13v-2c0-.21,0-0.26.26-0.29l1.4-.19,0.21,0c0.14,0,.16.08,0.16,0.27v2.23h1.82c0.14,0,.27,0,0.27.18a0.44,0.44,0,0,1,0,.13l-0.21.94c0,0.22-.1.24-0.29,0.24h-1.58v3.86c0,0.51,0,1,.54,1a5.47,5.47,0,0,0,1.26-.3,0.12,0.12,0,0,1,.13.1Z" transform="translate(-313 -277.04)"/><path class="cls-1" d="M432.67,316.94a0.24,0.24,0,0,1-.3.21h-1.31a0.24,0.24,0,0,1-.3-0.21l-2.54-7.35a1.1,1.1,0,0,1-.08-0.27c0-.13.11-0.14,0.35-0.17l1.32-.14h0.26a0.34,0.34,0,0,1,.22.32l1,3.59c0.18,0.64.41,1.72,0.51,2.31h0a23.12,23.12,0,0,1,.54-2.31l1.08-3.59a0.33,0.33,0,0,1,.22-0.32h0.26l1.08,0.14c0.24,0,.35,0,0.35.17a1.19,1.19,0,0,1-.08.27Z" transform="translate(-313 -277.04)"/><path class="cls-1" d="M440,315.19a1.75,1.75,0,0,1-1.2.61,1,1,0,0,1-1.05-1.09c0-1.4,1.85-1.28,2.25-1.28v1.75Zm2.18,1.53a0.19,0.19,0,0,0,.14-0.14,5.11,5.11,0,0,1-.42-2.07v-3.08c0-1.66-.75-2.57-2.74-2.57-1.23,0-2.81.38-2.81,0.75a0.42,0.42,0,0,0,0,.19l0.32,1a0.21,0.21,0,0,0,.16.16,8.07,8.07,0,0,1,2-.48,1,1,0,0,1,1.13,1.18v0.49c-1.26,0-4.16,0-4.16,2.69a2.26,2.26,0,0,0,2.39,2.46,2.65,2.65,0,0,0,2.07-1,1.59,1.59,0,0,0,.46,1,1,1,0,0,0,.21-0.06Z" transform="translate(-313 -277.04)"/><path class="cls-1" d="M450.59,316.79c0,0.18,0,.22-0.22.22h-1.58c-0.19,0-.22,0-0.22-0.22v-4.91c0-.61-0.08-1.34-0.89-1.34a2.19,2.19,0,0,0-1.4.65v5.6c0,0.18,0,.22-0.22.22h-1.58c-0.19,0-.22,0-0.22-0.22V312a6.39,6.39,0,0,0-.3-2.49,0.2,0.2,0,0,1,.18-0.18l1.21-.4a0.81,0.81,0,0,1,.24,0c0.21,0,.34.35,0.51,1.1a3.44,3.44,0,0,1,2.44-1.1c0.88,0,2.07.4,2.07,2.33v5.6Z" transform="translate(-313 -277.04)"/><path class="cls-1" d="M464.2,316.79c0,0.18,0,.22-0.22.22h-1.58c-0.19,0-.22,0-0.22-0.22v-4.91c0-.61-0.08-1.34-0.89-1.34a2,2,0,0,0-1.36.67v5.58c0,0.18,0,.22-0.22.22h-1.58c-0.19,0-.22,0-0.22-0.22V306.07c0-.24.11-0.24,0.3-0.29l1.34-.27s0.19,0,.22,0,0.16,0.06.16,0.33v4a3.23,3.23,0,0,1,2.2-.91c1.69,0,2.07,1.13,2.07,2.52v5.41Z" transform="translate(-313 -277.04)"/><path class="cls-1" d="M468,312.13c0-.45.11-1.78,1.36-1.78s1.15,1.13,1.15,1.78H468Zm4,3.08a0.21,0.21,0,0,0-.18-0.13,5.69,5.69,0,0,1-2,.53c-1.5,0-1.75-1.1-1.75-2h4.29c0.3,0,.37-0.1.37-0.4,0-1.93-.48-4.35-3.19-4.35-2.14,0-3.49,1.76-3.49,4.29,0,2.93,1.47,4.13,3.57,4.13,1.26,0,2.85-.53,2.85-0.94a0.33,0.33,0,0,0,0-.17Z" transform="translate(-313 -277.04)"/><path class="cls-1" d="M479.28,316.55a0.81,0.81,0,0,1,0,.13c0,0.3-1.16.61-2.25,0.61-2.06,0-2.06-1.61-2.06-3.08v-3.59h-1.13c-0.19,0-.22,0-0.22-0.22v-1c0-.18,0-0.22.22-0.22H475v-2c0-.21,0-0.26.25-0.29l1.4-.19,0.21,0c0.14,0,.16.08,0.16,0.27v2.23h1.82c0.14,0,.27,0,0.27.18a0.44,0.44,0,0,1,0,.13l-0.21.94c0,0.22-.1.24-0.29,0.24H477v3.86c0,0.51,0,1,.54,1a5.47,5.47,0,0,0,1.26-.3,0.12,0.12,0,0,1,.13.1Z" transform="translate(-313 -277.04)"/><path class="cls-1" d="M487.89,316.67c0,0.29-.06.33-0.33,0.33h-1.48c-0.27,0-.34,0-0.34-0.33V306.42c0-.29.07-0.33,0.34-0.33h1.48c0.27,0,.33,0,0.33.33v4.47h0l3.51-4.86a0.44,0.44,0,0,1,.27-0.21,0.83,0.83,0,0,1,.29.13l1.08,0.54a0.41,0.41,0,0,1,.21.19,0.32,0.32,0,0,1-.11.26l-3.4,4.48,3.75,4.66a0.32,0.32,0,0,1,.11.25,0.4,0.4,0,0,1-.21.19l-1.28.64a0.83,0.83,0,0,1-.29.13,0.44,0.44,0,0,1-.27-0.21l-3.67-4.88h0v4.48Z" transform="translate(-313 -277.04)"/><path class="cls-1" d="M498.27,316.71a0.81,0.81,0,0,1,0,.13,2.1,2.1,0,0,1-1.61.45c-2,0-2-1.61-2-3.08v-8.13c0-.24.11-0.24,0.3-0.29l1.34-.27,0.22,0c0.13,0,.16.06,0.16,0.34v8.69c0,0.51,0,1,.45,1a2.56,2.56,0,0,0,.62-0.14,0.12,0.12,0,0,1,.13.09Z" transform="translate(-313 -277.04)"/><path class="cls-1" d="M501.25,312.13c0-.45.11-1.78,1.36-1.78s1.15,1.13,1.15,1.78h-2.5Zm4,3.08a0.21,0.21,0,0,0-.18-0.13,5.69,5.69,0,0,1-2,.53,1.68,1.68,0,0,1-1.75-2h4.29c0.3,0,.37-0.1.37-0.4,0-1.93-.48-4.35-3.19-4.35-2.14,0-3.49,1.76-3.49,4.29,0,2.93,1.47,4.13,3.57,4.13,1.26,0,2.85-.53,2.85-0.94a0.32,0.32,0,0,0,0-.17Z" transform="translate(-313 -277.04)"/><path class="cls-1" d="M510.44,316.79c0,0.17,0,.22-0.22.22h-1.58c-0.19,0-.22,0-0.22-0.22v-6.17h-1.23c-0.19,0-.22,0-0.22-0.22v-1c0-.18,0-0.22.22-0.22h3c0.19,0,.22,0,0.22.22v7.43Zm-1-8.69a1.32,1.32,0,1,1,0-2.63,1.32,1.32,0,0,1,0,2.63" transform="translate(-313 -277.04)"/><path class="cls-1" d="M519.34,316.79c0,0.18,0,.22-0.22.22h-1.58c-0.19,0-.22,0-0.22-0.22v-4.91c0-.61-0.08-1.34-0.89-1.34a2.18,2.18,0,0,0-1.4.65v5.6c0,0.18,0,.22-0.22.22h-1.58c-0.19,0-.22,0-0.22-0.22V312a6.37,6.37,0,0,0-.3-2.49,0.2,0.2,0,0,1,.18-0.18l1.21-.4a0.8,0.8,0,0,1,.24,0c0.21,0,.34.35,0.51,1.1a3.45,3.45,0,0,1,2.44-1.1c0.88,0,2.07.4,2.07,2.33v5.6Z" transform="translate(-313 -277.04)"/><path class="cls-1" d="M523.29,312.13c0-.45.11-1.78,1.35-1.78s1.15,1.13,1.15,1.78h-2.5Zm4,3.08a0.21,0.21,0,0,0-.18-0.13,5.69,5.69,0,0,1-2,.53,1.68,1.68,0,0,1-1.75-2h4.29c0.3,0,.37-0.1.37-0.4,0-1.93-.48-4.35-3.19-4.35-2.13,0-3.49,1.76-3.49,4.29,0,2.93,1.47,4.13,3.57,4.13,1.26,0,2.85-.53,2.85-0.94a0.31,0.31,0,0,0,0-.17Z" transform="translate(-313 -277.04)"/><path class="cls-2" d="M369.94,281a0.48,0.48,0,0,0,.59-0.45l0.53-1.87a0.92,0.92,0,0,0,.06-0.34c0-.22-0.11-0.31-0.53-0.31h-9.07c-0.5,0-.56.08-0.56,0.56v17.5c0,0.5.06,0.56,0.56,0.56h8.85c0.5,0,.56-0.06.56-0.56v-1.84c0-.48-0.06-0.56-0.56-0.56H364.7v-5.27h4.52c0.47,0,.56-0.08.56-0.56V286c0-.5-0.08-0.56-0.56-0.56H364.7V281h5.25Zm6.42,1.79a0.82,0.82,0,0,0-.25.08l-2.34,1c-0.22.08-.28,0.14-0.28,0.28a0.74,0.74,0,0,0,.06.19,6.08,6.08,0,0,1,.56,2.68V302c0,0.34.06,0.45,0.25,0.45a1,1,0,0,0,.25,0l2.54-.53c0.36-.08.39-0.11,0.39-0.5v-4.91a5.13,5.13,0,0,0,2.76.73c3.32,0,5-2.46,5-7.42,0-4.49-1.65-6.92-4.69-6.92a4.79,4.79,0,0,0-3.46,1.42,1.84,1.84,0,0,0-.75-1.42m3.26,2.73c1.53,0,2.21,1.34,2.21,4.33,0,3.49-.61,4.66-2.43,4.66a3.63,3.63,0,0,1-1.87-.5v-7.48a3,3,0,0,1,2.09-1m9.43,10.66c0,0.42.06,0.48,0.48,0.48H392c0.39,0,.45-0.06.45-0.48V283.76c0-.42-0.06-0.47-0.45-0.47H387c-0.39,0-.45.06-0.45,0.47v1.56c0,0.42.06,0.47,0.45,0.47h2.07v10.41Zm1.65-19.09a2.19,2.19,0,1,0,2.18,2.18,2.19,2.19,0,0,0-2.18-2.18m6.39,0.47a0.47,0.47,0,0,0-.42.5v13.79l0,1.14c0,1.73.2,2.48,0.81,3.18a3.38,3.38,0,0,0,2.51,1,6.46,6.46,0,0,0,2.48-.5,0.37,0.37,0,0,0,.25-0.25,0.64,0.64,0,0,1,0-.11l0-.14-0.56-2.2a0.2,0.2,0,0,0-.19-0.17,0.56,0.56,0,0,0-.19,0,2.77,2.77,0,0,1-.89.17c-0.59,0-.73-0.31-0.73-1.39V277.51c0-.33-0.08-0.47-0.28-0.47a0.3,0.3,0,0,0-.14,0l-0.19,0Zm17.3,13.31c0.5,0,.61-0.14.61-0.7,0-4.91-1.79-7.39-5.39-7.39s-5.92,2.9-5.92,7.28c0,4.58,2.12,7.06,6.06,7.06a9.27,9.27,0,0,0,3.38-.61c1.12-.42,1.51-0.67,1.51-1a1,1,0,0,0-.08-0.31l-0.7-1.59a0.32,0.32,0,0,0-.31-0.25,0.66,0.66,0,0,0-.33.11,6.65,6.65,0,0,1-3.13.84c-2,0-2.93-1.12-3-3.43h7.28Zm-4.94-5.61c1.37,0,1.9.84,2,3.1h-4.24c0.25-2.23.87-3.1,2.29-3.1m11.05-2.48a0.82,0.82,0,0,0-.25.08l-2.34,1c-0.22.08-.28,0.14-0.28,0.28a0.71,0.71,0,0,0,.06.19,6.08,6.08,0,0,1,.56,2.68V302c0,0.34.06,0.45,0.25,0.45a1,1,0,0,0,.25,0l2.54-.53c0.36-.08.39-0.11,0.39-0.5v-4.91a5.13,5.13,0,0,0,2.76.73c3.32,0,5-2.46,5-7.42,0-4.49-1.65-6.92-4.69-6.92a4.78,4.78,0,0,0-3.46,1.42,1.85,1.85,0,0,0-.75-1.42m3.26,2.73c1.53,0,2.2,1.34,2.2,4.33,0,3.49-.61,4.66-2.43,4.66a3.62,3.62,0,0,1-1.87-.5v-7.48a3,3,0,0,1,2.09-1m7.76,9.93a0.55,0.55,0,0,0,.31.39,10.69,10.69,0,0,0,4.88,1.28,4.29,4.29,0,0,0,4.63-4.38,4,4,0,0,0-.84-2.48c-0.61-.72-1.17-1.06-3.43-1.92-1.51-.59-1.81-0.84-1.81-1.59s0.64-1.37,1.76-1.37a7.42,7.42,0,0,1,2.73.7,0.9,0.9,0,0,0,.22.06c0.11,0,.17-0.06.25-0.25l0.7-1.54a0.93,0.93,0,0,0,.08-0.28,0.36,0.36,0,0,0-.22-0.31,8.91,8.91,0,0,0-3.94-1c-2.85,0-4.86,1.84-4.86,4.41a3.59,3.59,0,0,0,.86,2.43c0.53,0.64,1.12.95,3.07,1.7,1.76,0.67,2.09.95,2.09,1.73a1.42,1.42,0,0,1-1.59,1.4,8,8,0,0,1-3.68-1.14,0.53,0.53,0,0,0-.25-0.08,0.32,0.32,0,0,0-.28.25l-0.61,1.65a1.38,1.38,0,0,0-.09.33m13.59,0.73c0,0.42.06,0.48,0.48,0.48h2.51c0.39,0,.45-0.06.45-0.48V283.76c0-.42-0.06-0.47-0.45-0.47h-5.05c-0.39,0-.45.06-0.45,0.47v1.56c0,0.42.06,0.47,0.45,0.47h2.07v10.41Zm1.65-19.09a2.19,2.19,0,1,0,2.18,2.18,2.19,2.19,0,0,0-2.18-2.18m15.79,13.78c0.5,0,.61-0.14.61-0.7,0-4.91-1.79-7.39-5.39-7.39s-5.92,2.9-5.92,7.28c0,4.58,2.12,7.06,6.06,7.06a9.27,9.27,0,0,0,3.38-.61c1.12-.42,1.51-0.67,1.51-1a1,1,0,0,0-.08-0.31l-0.7-1.59a0.32,0.32,0,0,0-.31-0.25,0.67,0.67,0,0,0-.34.11,6.65,6.65,0,0,1-3.12.84c-2,0-2.93-1.12-3-3.43h7.28Zm-4.94-5.61c1.37,0,1.9.84,2,3.1h-4.24c0.25-2.23.86-3.1,2.29-3.1m7.4-2c-0.36,0-.47.08-0.47,0.36v1.53c0,0.59,0,.61.47,0.61h2v10.41c0,0.42.06,0.48,0.47,0.48H470c0.39,0,.45-0.06.45-0.48V285.8h2.62a0.44,0.44,0,0,0,.5-0.39l0.39-1.59,0-.11a0.43,0.43,0,0,0,0-.17c0-.17-0.14-0.25-0.47-0.25h-3.1v-1.14c0-1.79.31-2.2,1.53-2.2a3.71,3.71,0,0,1,1.62.39,0.52,0.52,0,0,0,.25.08,0.25,0.25,0,0,0,.25-0.25l0.5-1.93,0-.11a0.13,0.13,0,0,0,0-.11,0.4,0.4,0,0,0-.28-0.36,7.57,7.57,0,0,0-3-.61,4.37,4.37,0,0,0-3.1,1.09c-0.95.89-1.26,1.93-1.26,4v1.14h-2Zm15.85-.47c-3.68,0-5.94,2.73-5.94,7.14s2.18,7.2,5.92,7.2,5.86-2.76,5.86-7.15-2.18-7.2-5.83-7.2m-2.29,7.2c0-3.18.64-4.47,2.23-4.47S483,286.86,483,290s-0.64,4.44-2.23,4.44-2.23-1.28-2.23-4.41m13.62-7.31h-0.14a0.4,0.4,0,0,0-.11.06l-2.4.89a0.29,0.29,0,0,0-.25.25,0.63,0.63,0,0,0,.08.25,6.73,6.73,0,0,1,.59,3v9.1c0,0.42.06,0.48,0.45,0.48h2.51c0.42,0,.47-0.06.47-0.48v-9.49a3.43,3.43,0,0,1,2.37-1.12c1.09,0,1.56.67,1.56,2.26v8.34c0,0.42,0,.48.45,0.48h2.51c0.42,0,.47-0.06.47-0.48v-9.1c0-3-1.09-4.3-3.52-4.3a5.67,5.67,0,0,0-4.07,1.73c-0.31-1.17-.64-1.84-1-1.84M512.74,297A1.62,1.62,0,0,0,513,297l2.23-.89a0.32,0.32,0,0,0,.25-0.25,1.1,1.1,0,0,0-.06-0.17,4.1,4.1,0,0,1-.5-2.34V277.51c0-.33-0.06-0.47-0.25-0.47s-0.14,0-.25,0l-2.54.53c-0.36.08-.39,0.11-0.39,0.5v5.5a5,5,0,0,0-2.68-.78,4.35,4.35,0,0,0-3.46,1.65c-1.11,1.34-1.59,3.1-1.59,6,0,4.16,1.65,6.67,4.41,6.67a6,6,0,0,0,3.79-1.48,1.61,1.61,0,0,0,.75,1.37m-1.23-3.52a2.94,2.94,0,0,1-2.15.95c-1.54,0-2.15-1.25-2.15-4.44s0.64-4.47,2.34-4.47a4.2,4.2,0,0,1,2,.48v7.48Zm6.67,2a0.54,0.54,0,0,0,.31.39,10.7,10.7,0,0,0,4.88,1.28,4.29,4.29,0,0,0,4.63-4.38,4,4,0,0,0-.84-2.48c-0.61-.72-1.17-1.06-3.43-1.92-1.51-.59-1.81-0.84-1.81-1.59s0.64-1.37,1.76-1.37a7.42,7.42,0,0,1,2.74.7,0.89,0.89,0,0,0,.22.06c0.11,0,.17-0.06.25-0.25l0.7-1.54a0.9,0.9,0,0,0,.08-0.28,0.36,0.36,0,0,0-.22-0.31,8.91,8.91,0,0,0-3.94-1c-2.85,0-4.86,1.84-4.86,4.41a3.59,3.59,0,0,0,.87,2.43c0.53,0.64,1.12.95,3.07,1.7,1.76,0.67,2.09.95,2.09,1.73a1.42,1.42,0,0,1-1.59,1.4,8,8,0,0,1-3.68-1.14,0.53,0.53,0,0,0-.25-0.08,0.32,0.32,0,0,0-.28.25l-0.61,1.65a1.36,1.36,0,0,0-.08.33" transform="translate(-313 -277.04)"/><path class="cls-3" d="M340.22,300.49a3.84,3.84,0,1,1,5.38-.72A3.84,3.84,0,0,1,340.22,300.49Zm-6.42,5.07a3.84,3.84,0,1,1,3.31,4.3A3.84,3.84,0,0,1,333.8,305.56Zm-7.6-3a3.84,3.84,0,1,1-2.07,5A3.84,3.84,0,0,1,326.19,302.53Zm-1.18-8.1a3.84,3.84,0,1,1-5.38.71A3.84,3.84,0,0,1,325,294.43Zm6.43-5.07a3.84,3.84,0,1,1-3.31-4.3A3.84,3.84,0,0,1,331.44,289.36Z" transform="translate(-313 -277.04)"/><path class="cls-2" d="M339,292.33a3.8,3.8,0,1,1,2.05-5,3.8,3.8,0,0,1-2.05,5" transform="translate(-313 -277.04)"/><path class="cls-3" d="M336.36,283.15a3.84,3.84,0,0,1,6.75,3.67m3.68,6.83a3.84,3.84,0,0,1,.19,7.68m-4.08,6.6a3.84,3.84,0,0,1-6.56,4m-7.76-.23a3.84,3.84,0,0,1-6.75-3.68m-3.68-6.83a3.84,3.84,0,0,1-.19-7.68m4.08-6.6a3.84,3.84,0,1,1,6.55-4m12.8,6.31a3.84,3.84,0,1,1,2.72,4.7m0,7.05a3.84,3.84,0,1,1-2.71,4.71m-6.07,3.48a3.84,3.84,0,1,1-5.43,0m-6.08-3.48a3.84,3.84,0,1,1-2.72-4.7m-0.07-7a3.84,3.84,0,1,1,2.71-4.71m6.1-3.53a3.84,3.84,0,1,1,5.43,0m3.74,6.6a3.8,3.8,0,1,1,2.05-5A3.8,3.8,0,0,1,339,292.33Z" transform="translate(-313 -277.04)"/></svg>